<?xml version="1.0" encoding="UTF-8" ?>
<svg width="1024pt" height="1024pt" viewBox="0 0 1024 1024" version="1.1" xmlns="http://www.w3.org/2000/svg">
<g id="#fefefeff">
</g>
<g id="#3e8ee7ff">
<path fill="#3e8ee7" opacity="1.00" d=" M 470.10 199.23 C 503.45 179.56 541.54 168.32 580.09 165.50 C 607.49 163.89 635.22 165.70 661.88 172.49 C 677.18 176.62 692.25 181.72 706.59 188.49 C 725.21 197.68 743.21 208.42 758.87 222.15 C 784.21 243.13 803.73 270.51 817.68 300.16 C 827.56 322.69 833.89 346.72 836.39 371.19 C 881.13 380.98 921.35 409.61 945.55 448.46 C 952.63 459.61 958.40 471.56 962.92 483.97 C 967.41 497.72 971.38 511.79 972.58 526.26 C 966.22 517.97 960.21 509.40 953.13 501.69 C 930.52 476.16 903.16 454.82 872.92 439.05 C 857.73 431.60 842.30 424.39 825.91 419.97 C 787.17 407.83 745.67 405.03 705.54 410.76 C 687.24 413.01 669.44 418.07 651.98 423.82 C 619.30 435.76 588.63 453.51 562.57 476.61 C 547.84 489.52 534.59 504.05 522.69 519.59 C 498.79 551.61 481.85 588.89 474.30 628.16 C 469.61 651.38 468.33 675.24 469.84 698.86 C 472.89 738.24 484.80 776.99 504.65 811.16 C 512.97 826.12 523.27 839.84 533.90 853.21 C 456.93 853.44 379.95 853.24 302.97 853.31 C 281.28 853.08 259.44 854.41 237.93 850.88 C 217.59 847.73 197.64 841.83 179.05 832.95 C 162.91 825.64 148.13 815.67 134.29 804.69 C 92.96 771.53 64.13 723.24 54.55 671.13 C 50.28 648.30 50.14 624.83 52.81 601.80 C 55.50 581.13 61.50 560.96 69.65 541.80 C 86.71 503.16 114.84 469.32 150.38 446.35 C 156.55 442.13 163.12 438.54 169.87 435.34 C 169.81 432.58 169.67 429.83 169.29 427.10 C 166.46 405.64 168.24 383.50 174.96 362.90 C 182.61 339.06 196.88 317.40 215.56 300.76 C 241.90 277.54 276.76 263.97 311.94 264.07 C 332.50 263.60 353.22 267.59 371.98 276.06 C 377.25 278.36 382.59 280.62 387.38 283.86 C 391.77 277.08 395.42 269.82 400.28 263.35 C 408.02 252.87 416.16 242.63 425.56 233.59 C 439.13 220.60 454.03 209.00 470.10 199.23 Z" />
</g>
<g id="#2ca1a9ff">
<path fill="#2ca1a9" opacity="1.00" d=" M 672.20 449.86 C 691.81 439.83 714.06 435.70 735.97 436.14 C 770.17 436.50 803.61 451.28 827.93 475.12 C 853.91 500.85 868.74 537.40 867.85 573.98 C 868.05 588.78 864.59 603.32 860.06 617.33 C 855.77 629.40 849.40 640.64 842.14 651.16 C 835.83 659.86 828.20 667.59 820.50 674.97 C 824.17 680.43 828.74 685.24 832.46 690.68 C 807.17 687.68 781.84 684.88 756.57 681.73 C 759.15 656.16 760.75 630.51 763.24 604.94 C 767.34 609.91 771.53 614.81 775.25 620.08 C 787.34 609.47 795.32 594.06 796.45 577.97 C 798.08 561.44 793.20 544.26 782.73 531.32 C 774.95 521.40 763.92 514.40 752.14 510.20 C 735.66 504.77 716.93 506.40 701.69 514.74 C 689.76 520.99 679.94 531.10 674.10 543.24 C 668.76 552.69 667.69 563.71 667.54 574.36 C 643.90 570.10 619.56 573.11 596.66 579.76 C 593.78 543.96 606.86 507.53 630.85 480.96 C 642.51 468.13 656.39 457.12 672.20 449.86 Z" />
</g>
<g id="#3578a9ff">
<path fill="#3578a9" opacity="1.00" d=" M 691.21 597.06 C 693.28 591.04 695.63 585.12 698.08 579.24 C 707.91 602.55 718.22 625.64 728.06 648.95 C 705.13 659.95 682.30 671.13 659.23 681.82 C 661.47 675.69 664.04 669.69 666.08 663.49 C 657.90 661.30 649.45 659.68 640.95 660.11 C 623.83 661.02 607.12 668.94 595.90 681.95 C 585.65 693.34 580.25 708.69 580.23 723.94 C 580.02 739.97 586.69 755.71 597.37 767.53 C 607.95 778.78 622.53 786.46 637.99 787.91 C 649.06 788.85 660.49 787.31 670.59 782.53 C 673.56 781.15 676.41 779.54 679.33 778.05 C 687.88 800.11 702.10 819.61 719.25 835.78 C 694.94 852.91 664.56 860.78 634.97 858.73 C 607.40 857.26 580.59 846.26 559.38 828.69 C 546.12 818.19 535.45 804.71 526.84 790.23 C 505.69 753.50 503.21 706.51 520.88 667.92 C 536.97 631.95 569.74 603.43 608.15 593.94 C 628.83 588.12 650.95 587.36 671.96 591.95 C 678.50 593.18 684.79 595.34 691.21 597.06 Z" />
</g>
<g id="#2c91adff">
<path fill="#2c91ad" opacity="1.00" d=" M 881.01 603.04 C 903.16 614.15 922.36 631.41 935.22 652.66 C 947.98 673.01 954.42 697.06 955.16 720.98 C 955.15 741.05 951.12 761.28 942.45 779.43 C 927.27 812.73 897.61 838.66 863.33 850.99 C 841.44 858.33 817.65 860.32 794.96 855.72 C 757.40 848.70 723.76 824.44 704.26 791.71 C 697.60 781.37 693.05 769.81 689.93 757.95 C 683.54 758.76 677.50 761.13 671.16 762.19 C 684.09 740.40 697.17 718.72 710.31 697.06 C 722.52 703.55 734.37 710.69 746.41 717.50 C 756.60 723.39 766.93 729.05 776.97 735.21 C 771.00 736.90 765.02 738.54 758.95 739.76 C 760.97 751.15 768.02 760.94 775.92 769.10 C 786.85 779.72 801.67 786.63 817.00 787.13 C 831.74 788.09 846.53 783.08 858.29 774.28 C 870.55 765.41 878.85 751.68 882.50 737.12 C 886.17 722.72 883.19 707.35 876.72 694.21 C 870.96 682.62 861.05 673.66 850.11 667.03 C 865.27 648.55 876.11 626.45 881.01 603.04 Z" />
</g>
</svg>